<svg width="160" height="60" viewBox="0 0 160 60" fill="none" xmlns="http://www.w3.org/2000/svg">
    <path fill-rule="evenodd" clip-rule="evenodd"
        d="M40 10H60V20V30V40V50H40V40V30V20V10ZM110 10H130V20V30V40V50H110V40V30V20V10Z" fill="white" />
    <path fill-rule="evenodd" clip-rule="evenodd"
        d="M60 10H80V20V30V40V50H60V40V30V20V10ZM130 10H150V20V30V40V50H130V40V30V20V10Z" fill="black" />
    <path fill-rule="evenodd" clip-rule="evenodd"
        d="M90 0H30V10V20H0V30V40V50H10V40V30H30V40V50V60H90V50V40V30H100V40V50V60H160V50V40V30V20V10V0H100V10V20H90V10V0ZM150 50V40V30V20V10H110V20V30V40V50H150ZM80 50H40V40V30V20V10H80V20V30V40V50Z"
        fill="#323232" />
</svg>