<svg width="200" height="200" viewBox="0 0 200 200" fill="none" xmlns="http://www.w3.org/2000/svg">
<circle cx="100" cy="100" r="100" fill="#D9D9D9"/>
<path fill-rule="evenodd" clip-rule="evenodd" d="M41 67H57.9027V73.3784H47.3784V90.6H57.9027V96.9784H41V67ZM41 102.719H47.3784V126.16H57.9027V132.538H41V102.719ZM78.6328 67H61.7301V96.9784H78.6328V90.6H68.1085V73.3784H78.6328V67ZM61.7301 132.698V103.038H68.1085V132.698H61.7301ZM159 67H82.4589V96.9784H159V67ZM88.8373 90.6V73.3784H152.621V90.6H88.8373ZM72.254 102.719H150.389V114.519H158.362V132.697H72.254V120.897V114.519V102.719ZM78.6324 114.519H144.011V109.097H78.6324V114.519ZM78.6324 126.319V120.897H151.984V126.319H78.6324Z" fill="#242424"/>
</svg>
